<?xml version="1.0" standalone="no"?><!DOCTYPE svg PUBLIC "-//W3C//DTD SVG 1.1//EN" "http://www.w3.org/Graphics/SVG/1.1/DTD/svg11.dtd"><svg t="1648890669081" class="icon" viewBox="0 0 1024 1024" version="1.1" xmlns="http://www.w3.org/2000/svg" p-id="2217" xmlns:xlink="http://www.w3.org/1999/xlink" width="200" height="200"><defs><style type="text/css"></style></defs><path d="M371.017143 243.931429a13.714286 13.714286 0 0 1 13.056 24.137142c-91.666286 49.700571-150.930286 148.553143-150.930286 256 0 159.049143 128.950857 288 288 288s288-128.950857 288-288a287.926857 287.926857 0 0 0-155.702857-255.890285 13.714286 13.714286 0 1 1 12.617143-24.356572A315.355429 315.355429 0 0 1 836.571429 524.068571c0 174.189714-141.220571 315.428571-315.428572 315.428572-174.208 0-315.428571-141.238857-315.428571-315.428572 0-117.540571 64.804571-225.645714 165.302857-280.137142zM512 164.205714a8.96 8.96 0 0 1 9.142857-8.777143c5.046857 0 9.142857 3.931429 9.142857 8.777143v411.245715a8.96 8.96 0 0 1-9.142857 8.777142 8.96 8.96 0 0 1-9.142857-8.777142V164.205714z" fill="#1296db" p-id="2218"></path></svg>